<?xml version="1.0" encoding="UTF-8" standalone="no"?>
<!DOCTYPE svg PUBLIC "-//W3C//DTD SVG 1.1//EN" "http://www.w3.org/Graphics/SVG/1.1/DTD/svg11.dtd">
<svg width="100%" height="100%" viewBox="0 0 102 55" version="1.1" xmlns="http://www.w3.org/2000/svg" xmlns:xlink="http://www.w3.org/1999/xlink" xml:space="preserve" xmlns:serif="http://www.serif.com/" style="fill-rule:evenodd;clip-rule:evenodd;stroke-linejoin:round;stroke-miterlimit:2;">
    <g transform="matrix(1,0,0,1,-181.063,-565.352)">
        <g transform="matrix(1.15484,0,0,0.258036,-177.651,470.557)">
            <path d="M310.618,503.752C310.618,562.481 318.518,576.718 331.789,576.718C343.766,576.718 351.943,565.677 351.943,511.316C351.943,459.828 344.043,455.464 331.281,451.101C321.847,447.61 319.905,444.701 319.905,428.993C319.905,413.867 321.847,408.922 330.032,408.922C338.68,408.922 342.24,414.448 342.24,436.847L350.556,436.847C350.556,386.549 343.164,367.372 330.957,367.372C318.842,367.372 311.589,381.61 311.589,426.375C311.589,472.045 317.179,486.008 331.281,490.08C341.778,493.28 343.627,496.189 343.627,513.061C343.627,529.06 340.991,535.169 332.252,535.169C321.709,535.169 318.934,525.278 318.934,503.752L310.618,503.752Z" style="fill:rgb(242,215,149);fill-rule:nonzero;"/>
        </g>
        <g transform="matrix(1.62312,0,0,0.258036,-545.082,470.557)">
            <path d="M469.192,471.754C469.192,539.525 475.29,576.718 489.528,576.718C502.426,576.718 508.898,545.627 509.731,486.59L501.27,486.59C500.484,519.752 496.416,532.842 489.528,532.842C481.113,532.842 477.507,513.643 477.507,471.754C477.507,430.156 481.067,411.248 489.528,411.248C496.462,411.248 500.484,424.047 501.27,456.918L509.731,456.918C508.898,398.173 502.426,367.372 489.528,367.372C475.29,367.372 469.192,404.275 469.192,471.754Z" style="fill:rgb(236,27,24);fill-rule:nonzero;"/>
        </g>
    </g>
</svg>
