<?xml version="1.0" encoding="UTF-8" standalone="no"?>
<!DOCTYPE svg PUBLIC "-//W3C//DTD SVG 1.1//EN" "http://www.w3.org/Graphics/SVG/1.1/DTD/svg11.dtd">
<svg width="100%" height="100%" viewBox="0 0 547 55" version="1.1" xmlns="http://www.w3.org/2000/svg" xmlns:xlink="http://www.w3.org/1999/xlink" xml:space="preserve" xmlns:serif="http://www.serif.com/" style="fill-rule:evenodd;clip-rule:evenodd;stroke-linejoin:round;stroke-miterlimit:2;">
    <g transform="matrix(1,0,0,1,-1426.03,-174.928)">
        <g transform="matrix(1.62312,0,0,0.258036,913.884,80.1328)">
            <g transform="matrix(0.711496,0,0,1,94.5261,0)">
                <path d="M310.618,503.752C310.618,562.481 318.518,576.718 331.789,576.718C343.766,576.718 351.943,565.677 351.943,511.316C351.943,459.828 344.043,455.464 331.281,451.101C321.847,447.61 319.905,444.701 319.905,428.993C319.905,413.867 321.847,408.922 330.032,408.922C338.68,408.922 342.24,414.448 342.24,436.847L350.556,436.847C350.556,386.549 343.164,367.372 330.957,367.372C318.842,367.372 311.589,381.61 311.589,426.375C311.589,472.045 317.179,486.008 331.281,490.08C341.778,493.28 343.627,496.189 343.627,513.061C343.627,529.06 340.991,535.169 332.252,535.169C321.709,535.169 318.934,525.278 318.934,503.752L310.618,503.752Z" style="fill:rgb(242,215,149);fill-rule:nonzero;"/>
            </g>
            <g transform="matrix(0.711496,0,0,1,94.5261,0)">
                <path d="M398.96,370.281L386.339,370.281L363.27,475.825L363.27,370.281L354.954,370.281L354.954,573.81L363.27,573.81L363.27,534.849L373.21,489.2L387.449,573.81L398.96,573.81L379.358,460.706L398.96,370.281Z" style="fill:rgb(242,215,149);fill-rule:nonzero;"/>
            </g>
            <g transform="matrix(0.711496,0,0,1,94.5261,0)">
                <rect x="400.677" y="370.281" width="8.316" height="203.529" style="fill:rgb(242,215,149);fill-rule:nonzero;"/>
            </g>
            <g transform="matrix(1.09321,0,0,1,-63.7002,0)">
                <path d="M446.076,370.281L446.076,523.219L423.972,370.281L412.697,370.281L412.697,573.81L421.013,573.81L421.013,421.164L443.07,573.81L454.392,573.81L454.392,370.281L446.076,370.281Z" style="fill:rgb(242,215,149);fill-rule:nonzero;"/>
            </g>
            <g transform="matrix(0.711496,0,0,1,109.75,0)">
                <rect x="458.096" y="370.281" width="8.316" height="203.529" style="fill:rgb(242,215,149);fill-rule:nonzero;"/>
            </g>
            <g transform="matrix(1,0,0,1,-25.3286,0)">
                <path d="M469.192,471.754C469.192,539.525 475.29,576.718 489.528,576.718C502.426,576.718 508.898,545.627 509.731,486.59L501.27,486.59C500.484,519.752 496.416,532.842 489.528,532.842C481.113,532.842 477.507,513.643 477.507,471.754C477.507,430.156 481.067,411.248 489.528,411.248C496.462,411.248 500.484,424.047 501.27,456.918L509.731,456.918C508.898,398.173 502.426,367.372 489.528,367.372C475.29,367.372 469.192,404.275 469.192,471.754Z" style="fill:rgb(255,0,0);fill-rule:nonzero;"/>
            </g>
            <path d="M547.415,370.281L547.415,449.962L499.105,449.962L499.105,370.281L491.308,370.281L491.308,573.81L499.105,573.81L499.105,494.128L547.415,494.128L547.415,573.81L555.731,573.81L555.731,370.281L547.415,370.281Z" style="fill:rgb(255,0,0);fill-rule:nonzero;"/>
            <rect x="559.435" y="370.281" width="8.316" height="203.529" style="fill:rgb(255,0,0);fill-rule:nonzero;"/>
            <path d="M596.881,370.281L571.455,370.281L571.455,573.81L579.771,573.81L579.771,519.429L596.881,519.429C604.231,519.429 609.267,490.372 609.267,445C609.267,399.628 604.231,370.281 596.881,370.281ZM594.569,475.553L579.771,475.553L579.771,414.156L594.569,414.156C597.066,414.156 600.951,414.156 600.951,445C600.951,475.553 597.066,475.553 594.569,475.553Z" style="fill:rgb(255,0,0);fill-rule:nonzero;"/>
            <path d="M610.983,503.752C610.983,562.481 618.883,576.718 632.154,576.718C644.131,576.718 652.308,565.677 652.308,511.316C652.308,459.828 644.408,455.464 631.645,451.101C622.212,447.61 620.27,444.701 620.27,428.993C620.27,413.867 622.212,408.922 630.397,408.922C639.044,408.922 642.605,414.448 642.605,436.847L650.921,436.847C650.921,386.549 643.529,367.372 631.322,367.372C619.207,367.372 611.954,381.61 611.954,426.375C611.954,472.045 617.544,486.008 631.646,490.08C642.142,493.28 643.992,496.189 643.992,513.061C643.992,529.06 641.356,535.169 632.616,535.169C622.073,535.169 619.299,525.278 619.299,503.752L610.983,503.752Z" style="fill:rgb(255,0,0);fill-rule:nonzero;"/>
        </g>
    </g>
</svg>
